<svg xmlns="http://www.w3.org/2000/svg" viewBox="0 0 303.1 79.32"><defs><style>.cls-1{fill:#595757;}.cls-1,.cls-2,.cls-3,.cls-4{fill-rule:evenodd;}.cls-2{fill:#fdd000;}.cls-3{fill:#b5b5b6;}.cls-4{fill:#fff;}</style></defs><title>logo1</title><g id="图层_2" data-name="图层 2"><g id="图层_1-2" data-name="图层 1"><polygon class="cls-1" points="74.65 56.43 93.31 45.52 74.64 68.28 55.99 79.31 74.65 56.43 74.65 56.43"/><polygon class="cls-2" points="0 68.28 55.99 0 55.99 33.75 18.66 79.31 0 68.28 0 68.28"/><polygon class="cls-2" points="37.32 68.28 74.65 22.76 74.65 56.42 55.99 79.31 37.32 68.28 37.32 68.28"/><polygon class="cls-2" points="74.65 68.28 93.31 45.52 93.31 79.31 74.65 68.28 74.65 68.28"/><polygon class="cls-1" points="55.99 33.75 74.65 22.76 37.32 68.28 18.66 79.32 55.99 33.75 55.99 33.75"/><polygon class="cls-3" points="55.99 0 74.65 22.76 55.99 33.75 55.99 0 55.99 0"/><polygon class="cls-3" points="74.65 22.76 93.31 45.52 74.65 56.44 74.65 22.76 74.65 22.76"/><polygon class="cls-3" points="93.31 45.52 111.97 68.28 93.31 79.31 93.31 45.52 93.31 45.52"/><polygon class="cls-4" points="151.86 23.1 151.86 21.18 167.79 21.18 167.79 18.69 151.86 18.69 151.86 16.76 167.65 16.76 167.65 14.25 151.86 14.25 151.86 12.67 145.7 12.67 145.7 14.25 129.91 14.25 129.91 16.76 145.7 16.76 145.7 18.69 129.77 18.69 129.77 21.18 145.7 21.18 145.7 23.1 129.1 23.1 129.1 25.61 168.46 25.61 168.46 23.1 151.86 23.1 151.86 23.1"/><path class="cls-4" d="M130.68,27.06V44h6.16V39.12h23.89v2.34h-9V44h12.13a3,3,0,0,0,3-3V27.06Zm30.05,9.55H136.84V34.32h23.89v2.29Zm0-4.8H136.84V29.55h23.89v2.26Z"/><path class="cls-4" d="M173.42,15.31H180V41.47h9.55V12.69h6.61V41.47h9.61V15.31h6.61V40.92a3.37,3.37,0,0,1-.67,2.38,2.65,2.65,0,0,1-2,.66h-36.3V15.31Z"/><path class="cls-4" d="M233.65,20.19H229.9V18.35h2.95V15.84H229.9V12.67h-6.17v3.16h-5.21v2.51h5.21v7.92l-7.22,12.54h6l1.2-2.38v5h-4.41V44h8a2.19,2.19,0,0,0,1.88-.66,3.38,3.38,0,0,0,.67-2.38V26.4l3.75-6.2Z"/><polygon class="cls-4" points="239.55 16.76 252.4 16.76 252.4 19.67 258.42 19.67 258.42 14.25 249.02 14.25 249.02 12.67 242.88 12.67 242.88 14.25 233.52 14.25 233.52 19.67 239.55 19.67 239.55 16.76 239.55 16.76"/><polygon class="cls-4" points="247.98 20.33 248.12 20.59 252.94 28.25 252.94 28.38 259.63 28.38 259.36 28.11 254.68 20.33 247.98 20.33 247.98 20.33"/><polygon class="cls-4" points="239.01 28.25 243.83 20.59 243.97 20.33 237.27 20.33 233.66 26.27 232.59 28.11 232.32 28.38 239.01 28.38 239.01 28.25 239.01 28.25"/><polygon class="cls-4" points="249.08 31.68 258.42 31.68 258.42 29.17 233.52 29.17 233.52 31.68 242.93 31.68 242.93 41.46 232.59 41.46 232.59 43.95 259.36 43.95 259.36 41.46 249.08 41.46 249.08 31.68 249.08 31.68"/><path class="cls-4" d="M281.81,26.53h21.3V29.1l-7.38,7.68,5,4.68h2.43V44h-4.78a4.2,4.2,0,0,1-3.24-1.18l-2.64-2.53-2.32,2.44a4.1,4.1,0,0,1-3,1.26h-5.34V41.46h2.71L289,36.88l-7.15-6.57h7l3.49,3.09,3.82-4.3H281.81V26.53Z"/><path class="cls-4" d="M283.62,12.67h17.63V23.19h1.86v2.55h-4.91c-3.22,0-3.12-3.43-3.12-3.43V15.17h-5.32V22.3s0,3.43-3,3.43h-4.93V23.19h1.82V12.67Z"/><path class="cls-4" d="M263.9,12.67V44H270V34.45h4.85v7h-2.74V44h6.29a2.72,2.72,0,0,0,2.62-3V12.67Zm11,19.27H270v-7h4.85v7Zm0-9.51H270V15.18h4.85v7.26Z"/><polygon class="cls-4" points="135.78 74.06 135.78 56.2 129.39 56.2 129.39 52.53 146.54 52.53 146.54 56.2 140.16 56.2 140.16 74.06 135.78 74.06 135.78 74.06"/><polygon class="cls-4" points="169.01 74.06 169.01 52.53 173.39 52.53 173.39 74.06 169.01 74.06 169.01 74.06"/><polygon class="cls-4" points="177.34 74.06 177.34 52.53 181.61 52.53 190.54 66.95 190.54 52.53 194.62 52.53 194.62 74.06 190.21 74.06 181.42 59.85 181.42 74.06 177.34 74.06 177.34 74.06"/><polygon class="cls-4" points="242.37 74.06 242.37 52.53 246.75 52.53 246.75 61.01 255.45 61.01 255.45 52.53 259.83 52.53 259.83 74.06 255.45 74.06 255.45 64.67 246.75 64.67 246.75 74.06 242.37 74.06 242.37 74.06"/><path class="cls-4" d="M283.69,74.05H279l-1.88-4.87h-8.81l-1.8,4.87h-4.7l8.46-21.53h4.67l8.77,21.53Zm-8-8.54-3.09-8-3,8Z"/><polygon class="cls-4" points="285.72 74.06 285.72 52.53 289.99 52.53 298.92 66.95 298.92 52.53 302.99 52.53 302.99 74.06 298.59 74.06 289.79 59.85 289.79 74.06 285.72 74.06 285.72 74.06"/><path class="cls-4" d="M164.87,64.37a6.12,6.12,0,0,0-2.41-2.19,21.77,21.77,0,0,0-4.74-1.56,11.57,11.57,0,0,1-4-1.45,1.66,1.66,0,0,1-.65-1.31,1.57,1.57,0,0,1,.7-1.35,5.08,5.08,0,0,1,3-.78,4.48,4.48,0,0,1,2.8.73,3.69,3.69,0,0,1,1.22,2.4h4.39s0-.09,0-.18A6.28,6.28,0,0,0,163,53.89q-2.07-1.79-6.17-1.79a10.94,10.94,0,0,0-4.29.76,5.9,5.9,0,0,0-2.72,2.2,5.55,5.55,0,0,0-.94,3.1,5.64,5.64,0,0,0,2,4.37,12,12,0,0,0,5,2.15q2.75.69,3.52,1a3.65,3.65,0,0,1,1.58.92,1.9,1.9,0,0,1,.45,1.28,2.57,2.57,0,0,1-1.08,2,5,5,0,0,1-3.21.87,4.87,4.87,0,0,1-3.2-1,5,5,0,0,1-1.57-3.05H148s0,.19,0,.42a8.09,8.09,0,0,0,2.64,5.46A9.55,9.55,0,0,0,157,74.48a12.44,12.44,0,0,0,4.74-.79,6.22,6.22,0,0,0,2.94-2.41,6.75,6.75,0,0,0,.17-6.91Z"/><path class="cls-4" d="M238,64.37a6.11,6.11,0,0,0-2.41-2.19,21.72,21.72,0,0,0-4.75-1.56,11.6,11.6,0,0,1-4-1.45,1.66,1.66,0,0,1-.65-1.31,1.58,1.58,0,0,1,.7-1.35,5.09,5.09,0,0,1,3-.78,4.49,4.49,0,0,1,2.8.73,3.69,3.69,0,0,1,1.21,2.4h4.39s0-.09,0-.18a6.29,6.29,0,0,0-2.18-4.77q-2.07-1.79-6.17-1.79a10.93,10.93,0,0,0-4.29.76,5.9,5.9,0,0,0-2.72,2.2,5.56,5.56,0,0,0-.94,3.1,5.63,5.63,0,0,0,2,4.37,12,12,0,0,0,5,2.15q2.75.69,3.52,1a3.64,3.64,0,0,1,1.58.92,1.89,1.89,0,0,1,.45,1.28,2.58,2.58,0,0,1-1.08,2,5,5,0,0,1-3.21.87,4.88,4.88,0,0,1-3.2-1,5,5,0,0,1-1.57-3.05h-4.3s0,.19,0,.42a8.1,8.1,0,0,0,2.64,5.46,9.56,9.56,0,0,0,6.34,1.87,12.45,12.45,0,0,0,4.74-.79,6.22,6.22,0,0,0,2.94-2.41,6.75,6.75,0,0,0,.17-6.91Z"/><path class="cls-4" d="M209.11,62.16v3.67h5.11V68.7a5.18,5.18,0,0,1-2.41,1.52,7.78,7.78,0,0,1-2.79.54,5.85,5.85,0,0,1-4.56-1.93q-1.74-1.93-1.74-5.78a7.62,7.62,0,0,1,1.7-5.39A6,6,0,0,1,209,55.84a5.28,5.28,0,0,1,3.17.92,4.58,4.58,0,0,1,1.73,2.51h4.47a6.15,6.15,0,0,0-.09-.78,7.65,7.65,0,0,0-2.93-4.68A10.44,10.44,0,0,0,209,52.11a11.32,11.32,0,0,0-5.21,1.08,9.56,9.56,0,0,0-4.17,4,12.37,12.37,0,0,0-1.43,6A13.07,13.07,0,0,0,199.5,69a9.07,9.07,0,0,0,3.82,4.07,12,12,0,0,0,6,1.42,14.72,14.72,0,0,0,5.31-1,9.58,9.58,0,0,0,4-2.86V62.16Z"/></g></g></svg>