<?xml version="1.0" encoding="UTF-8"?>
<svg xmlns="http://www.w3.org/2000/svg" viewBox="0 0 450 430" width="450" height="430">
  <defs>
    <linearGradient id="greenGrad" x1="15%" y1="5%" x2="85%" y2="95%">
      <stop offset="0%" stop-color="#F5F8D0"/>
      <stop offset="30%" stop-color="#CBDC3A"/>
      <stop offset="70%" stop-color="#A8C832"/>
      <stop offset="100%" stop-color="#8FC63E"/>
    </linearGradient>
    <linearGradient id="greyGrad" x1="85%" y1="10%" x2="15%" y2="90%">
      <stop offset="0%" stop-color="#D8D8D8"/>
      <stop offset="35%" stop-color="#A0A2A4"/>
      <stop offset="100%" stop-color="#58595B"/>
    </linearGradient>
  </defs>

  <!-- Green crystal body -->
  <path fill="url(#greenGrad)" d="M 270.87 301.07 C 275.77 298.57 275.54 298.85 298.07 266.50 C 308.03 252.20 316.92 239.67 317.83 238.65 C 322.43 233.53 322.34 233.53 371.22 233.00 L 416.95 232.50 L 419.22 230.22 C 421.45 228.00 421.50 227.46 421.50 207.05 C 421.50 181.12 422.19 182.48 405.64 175.78 C 399.24 173.18 391.63 169.54 388.75 167.69 C 376.59 159.87 368.98 147.37 368.20 133.92 C 367.63 124.05 369.05 118.10 375.12 104.92 C 380.09 94.14 380.94 89.61 378.98 84.46 C 377.40 80.28 354.36 57.35 349.28 54.89 C 343.71 52.20 340.63 52.65 329.22 57.87 C 316.17 63.84 310.27 65.25 300.14 64.85 C 292.71 64.55 290.47 64.02 284.65 61.15 C 272.02 54.93 262.76 43.28 257.50 27.00 C 254.99 19.22 252.53 14.74 249.83 13.00 C 248.01 11.83 243.20 11.43 228.00 11.17 C 215.74 10.96 207.14 11.25 204.82 11.94 C 199.69 13.47 196.63 17.59 193.47 27.22 C 191.98 31.77 189.41 38.07 187.76 41.21 C 183.73 48.88 174.72 57.30 166.30 61.24 C 160.77 63.83 157.96 64.48 150.92 64.82 C 140.74 65.30 135.11 63.91 120.89 57.40 C 115.45 54.91 109.79 53.00 107.84 53.00 C 105.75 53.00 102.64 54.13 99.95 55.86 C 93.75 59.84 72.26 82.12 71.43 85.42 C 70.28 90.01 71.57 95.11 76.47 105.29 C 87.14 127.48 85.43 145.53 71.31 159.64 C 66.84 164.11 62.98 166.49 49.69 172.92 C 40.78 177.23 32.60 181.76 31.50 182.98 C 29.63 185.06 29.50 186.62 29.50 206.40 C 29.50 225.17 29.71 227.90 31.31 230.35 L 33.12 233.12 L 36.31 231.15 C 38.07 230.06 43.29 223.85 47.92 217.34 C 52.55 210.83 61.15 198.75 67.03 190.50 C 72.91 182.25 82.59 168.53 88.53 160.00 C 118.00 117.75 129.95 104.08 148.54 91.38 C 163.83 80.93 175.63 75.96 194.65 71.94 C 222.97 65.96 250.55 67.65 275.99 76.94 C 300.95 86.04 328.92 110.11 343.47 135.00 C 348.43 143.48 354.36 156.68 358.52 168.50 C 362.06 178.54 361.60 181.46 356.24 182.95 C 351.22 184.35 330.15 184.28 325.90 182.86 C 321.08 181.25 318.89 178.97 310.14 166.52 C 305.89 160.46 296.70 147.37 289.74 137.44 C 282.77 127.50 276.18 118.57 275.10 117.59 C 270.39 113.33 267.56 113.09 221.93 113.04 C 173.35 112.99 172.27 113.12 165.58 119.62 C 163.60 121.54 161.12 124.77 160.07 126.81 C 159.02 128.84 153.85 136.56 148.60 143.97 C 142.03 153.21 139.36 157.76 140.07 158.47 C 140.74 159.14 159.13 159.68 192.30 160.00 C 252.06 160.58 247.12 159.61 255.90 172.55 C 258.87 176.92 265.16 185.90 269.87 192.50 C 276.74 202.12 278.45 205.20 278.44 208.00 C 278.43 210.85 276.28 214.53 266.96 227.69 C 260.66 236.59 254.25 245.73 252.71 248.00 C 251.00 250.53 248.29 252.87 245.71 254.04 C 241.76 255.84 238.63 255.96 195.50 255.99 C 148.58 256.02 138.99 256.43 139.01 258.39 C 139.04 260.18 167.39 298.88 170.07 300.78 C 172.24 302.31 176.87 302.56 213.00 303.09 C 262.75 303.81 265.69 303.71 270.87 301.07 Z"/>

  <!-- Dark gray base / foundation -->
  <path fill="url(#greyGrad)" d="M 249.24 403.36 C 252.85 401.51 254.32 399.10 257.71 389.50 C 263.99 371.73 272.03 361.56 284.79 355.26 C 291.89 351.75 293.00 351.50 301.45 351.50 C 311.37 351.50 315.52 352.61 330.13 359.14 C 340.18 363.63 345.68 364.10 350.91 360.91 C 355.18 358.31 374.29 339.84 378.14 334.60 C 382.28 328.96 381.97 324.73 376.57 313.06 C 370.21 299.31 369.04 294.54 369.29 283.20 C 369.48 274.57 369.86 272.74 372.75 266.64 C 374.54 262.86 376.00 259.45 376.00 259.05 C 376.00 257.89 368.67 256.00 364.21 256.00 C 358.59 256.00 355.46 258.95 349.70 269.64 C 343.70 280.79 343.71 280.78 336.50 290.99 C 324.77 307.63 306.75 323.55 290.15 331.92 C 263.76 345.24 226.97 350.20 197.00 344.47 C 179.52 341.13 161.75 333.60 147.44 323.45 C 137.16 316.17 118.38 296.96 110.83 286.00 C 102.34 273.68 100.68 270.36 101.35 267.01 C 102.20 262.73 120.21 237.80 124.11 235.50 C 127.37 233.57 129.42 233.50 179.06 233.37 C 235.61 233.23 233.97 233.40 239.69 227.16 C 244.94 221.43 251.40 210.53 251.40 207.41 C 251.40 203.56 241.06 188.63 236.06 185.26 L 232.70 183.00 L 169.32 183.00 C 99.73 183.00 102.12 182.80 96.15 189.13 C 91.87 193.67 61.82 235.65 60.29 239.22 C 58.60 243.17 59.81 245.71 66.39 251.99 C 69.46 254.91 73.81 260.13 76.06 263.59 C 85.69 278.37 85.44 290.54 75.09 311.95 C 70.09 322.28 69.30 326.68 71.57 331.69 C 73.79 336.59 98.11 360.60 102.90 362.61 C 107.66 364.60 111.61 363.79 121.50 358.81 C 135.53 351.73 146.91 349.75 158.29 352.41 C 162.02 353.28 166.52 354.72 168.29 355.62 C 177.87 360.48 185.79 370.50 190.95 384.26 C 198.03 403.16 199.02 404.14 211.93 405.12 C 224.39 406.08 245.93 405.06 249.24 403.36 Z"/>
</svg>
