<svg xmlns="http://www.w3.org/2000/svg" viewBox="0 0 112 79.32">
  <defs>
    <style>
      .cls-1{fill:#595757;fill-rule:evenodd;}
      .cls-2{fill:#fdd000;fill-rule:evenodd;}
      .cls-3{fill:#b5b5b6;fill-rule:evenodd;}
    </style>
  </defs>
  <title>ITSS Logo Icon</title>
  <g>
    <polygon class="cls-1" points="74.65 56.43 93.31 45.52 74.64 68.28 55.99 79.31 74.65 56.43"/>
    <polygon class="cls-2" points="0 68.28 55.99 0 55.99 33.75 18.66 79.31 0 68.28"/>
    <polygon class="cls-2" points="37.32 68.28 74.65 22.76 74.65 56.42 55.99 79.31 37.32 68.28"/>
    <polygon class="cls-2" points="74.65 68.28 93.31 45.52 93.31 79.31 74.65 68.28"/>
    <polygon class="cls-1" points="55.99 33.75 74.65 22.76 37.32 68.28 18.66 79.32 55.99 33.75"/>
    <polygon class="cls-3" points="55.99 0 74.65 22.76 55.99 33.75 55.99 0"/>
    <polygon class="cls-3" points="74.65 22.76 93.31 45.52 74.65 56.44 74.65 22.76"/>
    <polygon class="cls-3" points="93.31 45.52 111.97 68.28 93.31 79.31 93.31 45.52"/>
  </g>
</svg>
